<svg xmlns="http://www.w3.org/2000/svg" viewBox="0 0 24 24"><path fill-rule="evenodd" d="M11.34 2.023c-.918.092-1.446.19-2.06.386-1.461.464-2.621 1.427-3.176 2.636-.185.402-.381 1.034-.408 1.309-.025.271.058.437.269.534.162.075 2.821.37 2.991.333.195-.043.35-.266.44-.636.23-.943 1.092-1.548 2.204-1.548.665 0 1.043.13 1.427.493.419.397.531.801.532 1.92.001.642-.008.75-.059.75-.17 0-2.084.217-2.645.3-2.061.305-3.282.812-4.237 1.76-1.077 1.07-1.574 2.602-1.374 4.24.26 2.13 1.517 3.427 3.587 3.704.438.059 1.498.025 1.989-.063 1.085-.195 1.966-.671 2.904-1.571.212-.203.395-.37.406-.37.011 0 .187.235.391.521.461.648 1.148 1.331 1.409 1.402.265.071.42-.025 1.359-.843l1.13-.983c.155-.133.306-.294.337-.358.092-.189.004-.408-.375-.933a6.235 6.235 0 0 1-.495-.807c-.31-.669-.296-.462-.327-4.579-.029-3.946-.027-3.9-.242-4.601-.564-1.841-2.441-2.94-5.117-2.997a14.075 14.075 0 0 0-.86.001m2.22 9.407c0 .662-.019 1.065-.062 1.33-.249 1.538-1.229 2.604-2.402 2.61-.601.003-1.058-.226-1.366-.684-.266-.396-.349-.719-.349-1.366-.001-.616.043-.844.249-1.28.104-.22.218-.376.426-.584.609-.61 1.702-.96 3.034-.972l.47-.004v.95m6.98 5.775c-.587.073-1.29.325-1.65.59-.174.128-.223.267-.111.31.033.013.404-.008.824-.046.809-.074 1.602-.065 1.817.019a.77.77 0 0 1 .21.132c.199.186.079.936-.318 1.987-.313.83-.31.817-.264.873.082.098.203.046.452-.193.432-.414.758-.967 1-1.69.234-.699.316-1.454.183-1.701-.133-.249-1.237-.394-2.143-.281m-19.26.475c-.06.113-.012.184.328.484 2.325 2.051 5.271 3.334 8.592 3.742.814.1 2.666.1 3.48 0 2.19-.269 4.314-.94 5.94-1.877.384-.221.977-.617 1.11-.741.213-.199.095-.528-.188-.528-.067 0-.368.098-.669.217-1.409.558-2.99.986-4.533 1.226a21.508 21.508 0 0 1-5.64.095c-2.679-.324-5.326-1.154-7.587-2.38-.612-.331-.76-.374-.833-.238"/></svg>