<svg width="24" height="25" viewBox="0 0 24 25" fill="none" xmlns="http://www.w3.org/2000/svg">
<path fill-rule="evenodd" clip-rule="evenodd" d="M6.22 4.75C10.691 2.192 10.746 2.162 11.258 2.017C11.404 1.976 11.628 1.964 12.06 1.974C12.2769 1.9788 12.4312 1.97656 12.5832 1.99474C13.0968 2.05619 13.5826 2.35103 16.36 3.94C20.3958 6.24781 20.7782 6.46514 21.0842 6.76138C21.1217 6.79773 21.1581 6.83527 21.2 6.878C21.594 7.28 21.711 7.476 21.867 8L21.98 8.38V12.9C21.98 17.1138 21.9919 17.5734 21.8235 17.953C21.7906 18.027 21.7509 18.0979 21.703 18.193C21.522 18.553 21.138 19.034 20.871 19.234C20.625 19.42 19.85 19.873 16.6 21.733C13.75 23.363 12.933 23.789 12.408 23.918C11.971 24.026 11.817 24.015 11.296 23.839C10.848 23.687 10.27 23.375 7.36 21.71C4.051 19.817 3.37 19.418 3.12 19.225C2.835 19.006 2.521 18.617 2.321 18.236C2.26535 18.1296 2.22015 18.0525 2.18337 17.9715C2.01124 17.5925 2.02318 17.1299 2.01 13.204C2.001 10.643 2.011 8.795 2.034 8.562C2.088 8.025 2.282 7.454 2.499 7.193C2.763 6.875 3.269 6.451 3.66 6.221C3.858 6.105 5.01 5.443 6.22 4.75ZM17.913 7.1C16.127 6.06 12.708 4.112 12.46 3.994C12.162 3.852 11.859 3.842 11.62 3.967C11.008 4.284 6.715 6.717 5.522 7.422C5.068 7.69 5.065 7.693 5.157 7.756C5.44 7.949 9.925 10.534 11.371 11.337L12.001 11.688L12.771 11.257C14.712 10.171 18.783 7.824 18.873 7.74C18.917 7.7 18.738 7.58 17.913 7.1ZM19.975 16.664C19.989 16.292 19.998 14.996 19.995 13.784C19.992 12.572 19.978 11.098 19.965 10.509L19.94 9.439L16.47 11.469L13.001 13.5L13 17.448C13 20.129 13.013 21.403 13.041 21.421C13.085 21.448 13.439 21.253 16.4 19.568C18.879 18.158 19.499 17.782 19.745 17.541L19.949 17.34L19.975 16.664ZM4.82693 17.4682C5.79544 18.0714 7.18563 18.9373 7.51074 18.9395C7.74109 18.8591 7.79951 18.8066 7.92264 18.696C7.9506 18.6708 7.98191 18.6427 8.01932 18.6105C8.22149 18.4336 8.38333 18.2289 8.50484 17.9963L8.56318 17.9967V19.7125L10.5545 20.7466V14.0087C10.5575 13.5646 10.4742 13.1832 10.3046 12.8644C10.135 12.5423 9.90174 12.2782 9.60492 12.0719C9.31135 11.8657 8.97365 11.7127 8.59184 11.6129C8.21327 11.5131 7.81654 11.4618 7.40166 11.459C6.80526 11.4549 6.27955 11.5421 5.82454 11.7206C5.3728 11.8958 5.00318 12.1494 4.71568 12.4813C4.42821 12.81 4.23432 13.2009 4.134 13.654L6.04855 13.8225C6.12153 13.5767 6.26877 13.3735 6.49027 13.2129C6.7118 13.0491 7.00894 12.9684 7.38169 12.971C7.73499 12.9734 8.00669 13.0595 8.19678 13.2293C8.39012 13.3992 8.48574 13.6381 8.48365 13.946L8.48346 13.9752C8.48238 14.134 8.42161 14.2535 8.30113 14.3337C8.18065 14.414 7.98738 14.4742 7.72131 14.5146C7.45526 14.5517 7.10491 14.5914 6.67027 14.6339C6.30052 14.667 5.94681 14.7262 5.60912 14.8114C5.27468 14.8967 4.9756 15.0243 4.71189 15.1943C4.44818 15.3644 4.2392 15.5898 4.08495 15.8708C3.9307 16.1518 3.90127 16.4953 3.89846 16.9102C4.01651 16.9635 4.37602 17.1874 4.82693 17.4682ZM7.725 17.5583C7.49081 17.6767 7.22138 17.7348 6.9167 17.7327C6.59905 17.7306 6.337 17.6559 6.13055 17.5086C5.92736 17.3581 5.82672 17.1419 5.82863 16.8599C5.82994 16.6654 5.88128 16.5037 5.98264 16.3747C6.08402 16.2425 6.22573 16.1381 6.40777 16.0616C6.58981 15.985 6.8025 15.9297 7.04584 15.8957C7.15939 15.8803 7.28592 15.8633 7.42543 15.8448C7.56496 15.8231 7.7045 15.7997 7.84405 15.7747C7.98362 15.7465 8.10862 15.7165 8.21904 15.6849C8.33273 15.65 8.42213 15.6117 8.48724 15.57L8.48187 16.3625C8.48009 16.625 8.41206 16.8596 8.27776 17.0661C8.14346 17.2727 7.95921 17.4367 7.725 17.5583Z" fill="black"/>
</svg>
